<svg xmlns="http://www.w3.org/2000/svg" viewBox="0 0 498.86 158"><defs><style>.cls-1{isolation:isolate;font-size:23.59px;font-family:Lato-Regular, Lato;}.cls-1,.cls-5{fill:#878483;}.cls-2{letter-spacing:-0.01em;}.cls-3{letter-spacing:-0.01em;}.cls-4{letter-spacing:-0.02em;}.cls-6{fill:#fff;}.cls-7{fill:#b31834;}</style></defs><g id="Layer_2" data-name="Layer 2"><g id="Calque_1" data-name="Calque 1"><text class="cls-1" transform="translate(227.39 137.51) scale(1.07 1)">&lt;dri<tspan class="cls-2" x="41.14" y="0">v</tspan><tspan x="52.98" y="0">en </tspan><tspan class="cls-3" x="84.64" y="0">b</tspan><tspan class="cls-4" x="97.54" y="0">y</tspan><tspan x="109.12" y="0" xml:space="preserve"> passion&gt;</tspan></text><path class="cls-5" d="M202.44,82.06c-2.61,3.47-4.82,6.17-4.82,7,0,1.64,3.28,1.64,5.21,1.64,10.9,0,20.64-1.06,28.64-9.07.68-.77,1.16-1.25,1.45-1.25s.29.19.29.39a11.87,11.87,0,0,1-.68,2.51L229,93.16H181.4l32.89-42.25c1.26-1.64,2.32-3,2.32-3.76,0-1.74-3-1.74-6.17-1.74-11.48,0-17.94.77-25.56,9.75-.19.19-.48.58-.77.58s-.19-.29-.19-.39a6.94,6.94,0,0,1,.38-1.54l4-10.8h42.93Z"/><path class="cls-5" d="M280.1,59.49c0-9.45-4.53-16.11-14.56-16.11-8.78,0-13.51,7.81-14.57,16.11Zm-29.52,1.83c-.19,2.22-.29,4.25-.29,6.27,0,17.94,9.26,24.6,18.62,24.6,11.09,0,19.29-7.62,22.57-18.91h2c-3.09,13.31-12.73,21.32-25.85,21.32-16.4,0-28.55-11.09-28.55-26.53s12.15-26.53,28.55-26.53c10.51,0,23.24,6.37,24.6,19.77H250.58Z"/><path class="cls-5" d="M312.7,56.5h.2c2.22-8.2,6.94-15,19.68-15,10.61,0,20.55,5.5,20.55,20.84V81c-.19,9.17,1.06,10.52,3.86,11.48.67.19,1.25.48,1.25.68s-.48.29-1.45.29-3.37-.29-8.68-.29-8.68.29-9.93.29c-.58,0-1.06,0-1.06-.29s.19-.48.87-.58c3.48-.38,5.21-3,5.21-11.58V62.29c0-8.87-4-18.33-14.18-18.33-11.48,0-15.24,11.77-15.24,25.27V81c0,6.08.29,10.61,4.63,11.38.68.1,1.06.29,1.06.58s-.29.49-.87.49-4.63-.29-9.84-.29-9.65.29-10.32.29-.87-.1-.87-.49.39-.48,1.06-.58c4.83-.77,5.21-5.3,5.21-11.38V57.08c0-5.79-.67-9.07-3.38-10.23-1.06-.48-1.74-.77-1.74-1s.68-.29,1.84-.49a83.69,83.69,0,0,0,12.15-2.8V56.5Z"/><path class="cls-5" d="M366.14,30.65a5.74,5.74,0,1,1,11.48,0,5.74,5.74,0,0,1-11.48,0m1.54,22.28c0-4.82-1.83-5.4-3.38-6.27-.58-.29-1.64-.29-1.64-.58s1.06-.29,1.74-.39c4.53-.87,8.59-1.83,13.22-3.09V81c0,6.08.58,10.42,5,11.29.58.1,1,.29,1,.87,0,.29-.48.29-1.35.29s-4.44-.29-9.65-.29-8.68.29-9.64.29-1.35,0-1.35-.29c0-.58.38-.77,1-.87,4.44-.87,5.11-5.21,5.11-11.29V52.93Z"/><path class="cls-5" d="M418.51,77.91c-2-3.37-6.27-11.86-11.48-11.86-3.38,0-3.38,3.86-3.38,8V81c0,6.08.49,9.75,5.21,11.38.49.1.87.29.87.58s-.49.49-1.06.49-4.73-.29-10-.29-9.07.29-9.64.29-1-.2-1-.49.29-.39.68-.58c4.63-1.45,5-7.14,5-15.24V38.83c0-5.69-.39-10.13-3.57-10.61-1.06-.19-1.64-.48-1.64-.87s.87-.48,1.84-.77c4.63-1.16,8.68-2.12,13.31-3.37V64.88l16.21-13.51c2.22-1.83,3.57-3.38,3.57-5,0-1.35-1.16-2.12-1.64-2.6-.38-.29-1-.29-1-.77s.58-.38,1.35-.38,4.24.38,9.26.38c4.72,0,5.88-.38,9-.38.87,0,1.35,0,1.35.58s-1.64.58-3.18,1c-5.5,1.35-11.09,4.73-15.63,8.2L408.7,63.15v.19c13.12.29,16,5.3,22.67,15.92,3.28,5.21,7.33,10.61,12.54,13,.48.19,1,.38,1,.67s-.48.49-1.06.49-4.82-.29-9.65-.29c-2.22,0-4.44.29-6.36.29Z"/><path class="cls-5" d="M484.49,64.22H478.8c-10.42,0-21.12,3.09-21.12,15.82,0,7,5.11,12.16,12,12.16,11.38,0,14.86-12,14.86-21.22V64.22Zm9.94,20.54c0,3.18.48,6.08,3.47,7.43.58.29,1,.29,1,.58s-.58.38-1.25.38H487.19a29,29,0,0,1-2.32-9.84h-.19c-3.76,7.81-9.35,11.29-17.84,11.29-10,0-20.36-4.63-20.36-16.11,0-14.66,22.38-16.11,32.51-16.11h5.5V59.2c0-9.26-4.34-15.82-14.09-15.82-8.87,0-14.08,2.6-17.55,11.09-.39.87-.58,1.64-.77,1.64s-.29-.48-.48-1.06l-2.51-8.68c7.91-4.15,14.18-4.82,22.77-4.82,11,0,22.57,4,22.57,16.11Z"/><ellipse class="cls-6" cx="81" cy="79" rx="69.43" ry="65.76"/><path class="cls-7" d="M79,0a79,79,0,1,0,79,79A79,79,0,0,0,79,0Zm47.42,104c-.08.28-.08.72-.26.82a23.63,23.63,0,0,1-2.17,1c-1.69.76-3.33,1.44-5.26.55a10.5,10.5,0,0,0-3.12-.34c.33,2.09.69,4,.93,6,.46,3.79.93,7.57,1.24,11.37a9.8,9.8,0,0,1-.48,3.64c-1.18,3.76-4.53,5.36-8.39,4a16.49,16.49,0,0,1-3.91-2.18c-2.52-1.83-5-3.8-7.41-5.73a6.16,6.16,0,0,1-.75-.85l-.34-.3c-.63-.36-1.28-.69-1.88-1.09-8.56-5.72-17-11.59-26.12-16.47a103.49,103.49,0,0,0-17.93-7.67A11,11,0,0,0,48,96.2,1.65,1.65,0,0,0,46,98a48.68,48.68,0,0,0,.59,11.87c.9,5.15,3.22,9.69,5.8,14.13.27.46.82.77,1,1.24a3.14,3.14,0,0,1,.36,2,2,2,0,0,1-1.64.92c-6.25-.18-10.75-3-11.89-10-1.11-6.9-1.91-13.84-1.21-20.85.13-1.26.32-2.53.54-3.78a7.75,7.75,0,0,1,5.57-6.31q10.35-3.64,20.61-7.5c12.68-4.8,25.33-9.68,38-14.53.35-.13.69-.3,1-.45v-.33c-2.34-.28-4.67-.71-7-.8-11.8-.45-23.61-.24-35.39.48-4.46.27-8.92.69-13.37,1.18a57.1,57.1,0,0,0-6.31,1.22c-1.08.24-2.11.41-2.84-.59s-.35-2,.25-2.91a8.12,8.12,0,0,1,7.3-4.09c5.94,0,11.89,0,17.83,0,4.65,0,9.31,0,14,0,1.64,0,3.27.2,4.91.31l.12-.33L72.73,51.52,73,51l3.06,1.39C72.94,49.24,51.74,39.1,45.37,37.77l1.42.89,0,.25a8.58,8.58,0,0,1-1.35-.12c-3-.79-6-1.56-9-2.46C35.79,36.15,35,35.42,35,35a2.21,2.21,0,0,1,1.23-1.67c5-1.66,10-2.69,15.22-.6a121.05,121.05,0,0,1,20,10.87c2.14,1.37,4.23,2.84,6.37,4.21a1.58,1.58,0,0,0,1.31.16c8.86-4.67,17.89-9,26.32-14.51,1.91-1.24,3.8-2.51,5.63-3.86a6.8,6.8,0,0,0,1.59-1.86,2.22,2.22,0,0,1,2.54-1.09,9,9,0,0,1,5.8,4.95c.58,1.13-.25,3-1.65,3.79-4.1,2.37-8.19,4.77-12.3,7.12-6.89,3.93-13.81,7.84-20.8,11.8,2,1.43,4.12,2.93,6.24,4.38a2.11,2.11,0,0,0,1,.16,76.45,76.45,0,0,1,18,2.54,11.47,11.47,0,0,1,2.23.94c2.21,1.18,2.39,3.33.32,4.77a25.09,25.09,0,0,1-4.22,2.4q-6.94,3-14,5.86Q78.19,82.46,60.48,89.54c-.56.22-1.1.48-1.56.68l49.28,6.64c0-.87.06-1.88,0-2.89-.14-1.81-.36-3.61-.54-5.41a1.58,1.58,0,0,1,1.06-1.84c.85-.28,1.86-.27,2.26.62.76,1.7,1.29,3.5,1.92,5.25l-.34.12c-.47-1.42-.94-2.85-1.42-4.27l-.19.06c.63,2.49,1.27,5,1.9,7.46.1.41.19.83.28,1.24a1.76,1.76,0,0,0,2.08,1.5,9.1,9.1,0,0,1,2.71.08,48.18,48.18,0,0,1,5.56,1.55,13.78,13.78,0,0,1,3,1.67C127.37,102.63,127.09,103.32,126.42,104Z"/><path class="cls-7" d="M108.6,105.15c-.08-.77.3-1.88-1-2.23-1.86-.52-3.69-1.17-5.58-1.61-3-.69-6-1.24-8.94-1.88-.81-.18-1.61-.45-2.41-.69a15,15,0,0,0-2.14-.64c-1.13-.16-2.29-.09-3.42-.25-5.2-.73-10.38-1.51-15.58-2.25-1.15-.17-2.31-.26-3.47-.39L66,95.4l7.65,4.53-1.11.57,4.53,2.85c.11-1.3.78-.85,1.32-.5,5.83,3.78,11.67,7.54,17.45,11.38a49.79,49.79,0,0,1,4.26,3.45c1.94,1.62,3.86,3.26,5.79,4.9.56.48,1.09.56,1.25-.28.54-2.81,1.13-5.62,1.45-8.46a43.06,43.06,0,0,0-.17-5.19C108.45,107.49,108.71,106.3,108.6,105.15Z"/></g></g></svg>